<mxfile host="app.diagrams.net" modified="2024-04-01T19:18:31.314Z" agent="Mozilla/5.0 (iPhone; CPU iPhone OS 17_3_1 like Mac OS X) AppleWebKit/605.1.15 (KHTML, like Gecko) Version/17.3.1 Mobile/15E148 Safari/604.1" version="24.2.1" etag="1cCt_Vuhu3Rxh7kaJmzn" type="github">
  <diagram name="Page-1" id="NH1sBmBFyiwNczDXrx2-">
    <mxGraphModel>
      <root>
        <mxCell id="0" />
        <mxCell id="1" parent="0" />
      </root>
    </mxGraphModel>
  </diagram>
</mxfile>
